<svg width="313.28" height="321.373" viewBox="0 0 234.96 241.03" class="displayed_equation" xmlns="http://www.w3.org/2000/svg" xmlns:xlink="http://www.w3.org/1999/xlink">
  <defs>
    <clipPath id="svg694162356987tikz_00007b">
      <path d="M 1 0.175781 L 6.605469 0.175781 L 6.605469 8 L 1 8 Z M 1 0.175781" />
    </clipPath>
    <clipPath id="svg694162356987tikz_00007a">
      <path d="M0 0H7V9H0z" />
    </clipPath>
    <g id="svg694162356987tikz_00007i" clip-path="url(#svg694162356987tikz_00007a)">
      <path d="M 3.609375 1.304688 L 1.546875 6.773438 L 3.609375 4.96875 L 5.671875 6.773438" />
      <g clip-path="url(#svg694162356987tikz_00007b)">
        <path d="M 886.09375 2147.253125 L 865.46875 2092.565625 L 886.09375 2110.6125 L 906.71875 2092.565625 Z M 886.09375 2147.253125" transform="matrix(.1 0 0 -.1 -85 216.03)" fill="none" stroke-width="7.97" stroke-linejoin="round" stroke="#000" stroke-miterlimit="10" />
      </g>
    </g>
    <clipPath id="svg694162356987tikz_00007d">
      <path d="M 1 1 L 8 1 L 8 6.933594 L 1 6.933594 Z M 1 1" />
    </clipPath>
    <clipPath id="svg694162356987tikz_00007c">
      <path d="M0 0H9V7H0z" />
    </clipPath>
    <g id="svg694162356987tikz_00007j" clip-path="url(#svg694162356987tikz_00007c)">
      <path d="M 7.242188 3.9375 L 1.773438 1.875 L 3.578125 3.9375 L 1.773438 6" />
      <g clip-path="url(#svg694162356987tikz_00007d)">
        <path d="M 2082.421875 950.925 L 2027.734375 971.55 L 2045.78125 950.925 L 2027.734375 930.3 Z M 2082.421875 950.925" transform="matrix(.1 0 0 -.1 -201 99.03)" fill="none" stroke-width="7.97" stroke-linejoin="round" stroke="#000" stroke-miterlimit="10" />
      </g>
    </g>
    <clipPath id="svg694162356987tikz_00007e">
      <path d="M0 0H16V16H0z" />
    </clipPath>
    <g id="svg694162356987tikz_00007k" clip-path="url(#svg694162356987tikz_00007e)">
      <path d="M 4.667969 10.878906 L 9.996094 8.46875 L 7.261719 8.289063 L 7.078125 5.550781" />
      <path d="M 196.679688 261.510938 L 249.960938 285.6125 L 222.617188 287.409375 L 220.78125 314.792188 Z M 196.679688 261.510938" transform="matrix(.1 0 0 -.1 -15 37.03)" fill="none" stroke-width="7.97" stroke-linejoin="round" stroke="#000" stroke-miterlimit="10" />
    </g>
    <clipPath id="svg694162356987tikz_00007f">
      <path d="M0 0H19V18H0z" />
    </clipPath>
    <g id="svg694162356987tikz_00007l" clip-path="url(#svg694162356987tikz_00007f)">
      <path d="M 5.527344 12.308594 L 12.46875 11.453125 L 9.398438 10.273438 L 10.164063 7.074219" fill="#e132a2" />
      <path d="M 465.273438 1247.214063 L 534.6875 1255.76875 L 503.984375 1267.565625 L 511.640625 1299.557813 Z M 465.273438 1247.214063" transform="matrix(.1 0 0 -.1 -41 137.03)" fill="none" stroke-width="12.482" stroke-linejoin="round" stroke="#e132a2" stroke-miterlimit="10" />
    </g>
    <clipPath id="svg694162356987tikz_00007g">
      <path d="M0 0H21V21H0z" />
    </clipPath>
    <g id="svg694162356987tikz_00007m" clip-path="url(#svg694162356987tikz_00007g)">
      <path d="M 6.78125 14.601563 L 12.945313 11.304688 L 9.65625 11.308594 L 9.21875 8.050781" fill="#f3a203" />
      <path d="M 897.8125 964.284375 L 959.453125 997.253125 L 926.5625 997.214063 L 922.1875 1029.792188 Z M 897.8125 964.284375" transform="matrix(.1 0 0 -.1 -83 111.03)" fill="none" stroke-width="12.477" stroke-linejoin="round" stroke="#f3a203" stroke-miterlimit="10" />
    </g>
    <clipPath id="svg694162356987tikz_00007h">
      <path d="M0 0H21V20H0z" />
    </clipPath>
    <g id="svg694162356987tikz_00007n" clip-path="url(#svg694162356987tikz_00007h)">
      <path d="M 6.4375 6.117188 L 10.546875 11.796875 L 10.097656 8.527344 L 13.277344 7.65625" fill="#f3a203" />
      <path d="M 464.375 1229.128125 L 505.46875 1172.33125 L 500.976563 1205.026563 L 532.773438 1213.7375 Z M 464.375 1229.128125" transform="matrix(.1 0 0 -.1 -40 129.03)" fill="none" stroke-width="12.509" stroke-linejoin="round" stroke="#f3a203" stroke-miterlimit="10" />
    </g>
  </defs>
  <path d="M 886.09375 2108.620313 L 886.09375 950.925 L 2043.789063 950.925" transform="matrix(.1 0 0 -.1 0 241.03)" fill="none" stroke-width="7.97" stroke-linejoin="round" stroke="#000" stroke-miterlimit="10" />
  <use xlink:href="#svg694162356987tikz_00007i" transform="translate(85 25)" />
  <use xlink:href="#svg694162356987tikz_00007j" transform="translate(201 142)" />
  <path d="M90.6875 19.109375L90.320313 19.109375C89.960938 20.050781 89.726563 20.214844 88.933594 20.214844L87.21875 20.214844 87.21875 20.183594 91.132813 16.054688 91.179688 15.753906 87.09375 15.753906 86.679688 17.515625 87.027344 17.515625C87.25 16.769531 87.375 16.566406 88.085938 16.566406L89.894531 16.566406 89.894531 16.601563 85.988281 20.707031 85.945313 21.03125 90.183594 21.03125 90.6875 19.109375M216.300781 143.902344C216.164063 143.011719 216.089844 142.65625 215.84375 142.230469L215.675781 142.230469 214.089844 142.351563 214.089844 142.675781C214.089844 142.675781 214.324219 142.65625 214.480469 142.65625 215.164063 142.65625 215.21875 143.203125 215.296875 143.703125L215.953125 147.628906C215.640625 148.109375 214.839844 149.171875 214.628906 149.171875 214.382813 149.171875 214.257813 148.578125 213.835938 148.578125 213.578125 148.578125 213.398438 148.722656 213.398438 149.058594 213.398438 149.46875 213.789063 149.78125 214.257813 149.78125 215.105469 149.78125 215.886719 148.523438 216.722656 147.363281 217.304688 146.558594 217.941406 145.601563 218.542969 144.539063 218.898438 143.9375 219.03125 143.4375 219.03125 143 219.03125 142.519531 218.742188 142.152344 218.332031 142.152344 218.007813 142.152344 217.839844 142.351563 217.839844 142.585938 217.839844 143.011719 218.386719 143.324219 218.386719 143.613281 218.386719 143.882813 218.285156 144.148438 218.019531 144.585938L216.734375 146.648438 216.667969 146.648438 216.570313 145.53125 216.300781 143.902344" />
  <path d="M 886.09375 950.925 L 224.023438 288.854688" transform="matrix(.1 0 0 -.1 0 241.03)" fill="none" stroke-width="7.97" stroke-linejoin="round" stroke="#000" stroke-miterlimit="10" />
  <use xlink:href="#svg694162356987tikz_00007k" transform="translate(15 204)" />
  <path d="M 19.214844 221.90625 L 19.179688 221.90625 L 19.046875 221.335938 C 18.890625 220.734375 18.679688 220.242188 18.410156 219.929688 L 18.242188 219.929688 L 16.691406 220.109375 L 16.691406 220.445313 C 16.691406 220.445313 16.859375 220.410156 17.039063 220.410156 C 17.773438 220.398438 17.964844 220.699219 18.265625 221.636719 L 18.578125 222.652344 L 17.773438 223.824219 C 17.339844 224.449219 17.140625 224.460938 17.09375 224.460938 C 16.90625 224.460938 16.636719 224.316406 16.390625 224.316406 C 16.125 224.316406 15.957031 224.5625 15.957031 224.78125 C 15.957031 225.0625 16.125 225.328125 16.601563 225.328125 C 17.273438 225.328125 17.640625 224.804688 18 224.226563 L 18.710938 223.066406 L 18.757813 223.066406 L 19.035156 224.191406 C 19.191406 224.917969 19.4375 225.339844 19.949219 225.339844 C 20.710938 225.339844 21.179688 224.582031 21.5 224.09375 L 21.265625 223.914063 C 20.964844 224.316406 20.753906 224.539063 20.464844 224.539063 C 20.117188 224.539063 19.894531 224.125 19.582031 223.097656 L 19.347656 222.339844 L 20.027344 221.257813 C 20.21875 220.945313 20.375 220.789063 20.632813 220.789063 C 20.777344 220.789063 21.03125 220.902344 21.210938 220.902344 C 21.511719 220.902344 21.726563 220.644531 21.726563 220.375 C 21.726563 220.0625 21.589844 219.886719 21.167969 219.886719 C 20.507813 219.886719 20.0625 220.433594 19.761719 220.96875 L 19.214844 221.90625" />
  <path d="M 1722.421875 1907.995313 L 506.71875 1269.010938" transform="matrix(.1 0 0 -.1 0 241.03)" fill="none" stroke-width="12.454" stroke-linejoin="round" stroke="#e132a2" stroke-miterlimit="10" />
  <use xlink:href="#svg694162356987tikz_00007l" transform="translate(41 104)" />
  <path d="M 1722.421875 1907.995313 L 928.59375 999.557813" transform="matrix(.1 0 0 -.1 0 241.03)" fill="none" stroke-width="12.454" stroke-linejoin="round" stroke="#f3a203" stroke-miterlimit="10" />
  <use xlink:href="#svg694162356987tikz_00007m" transform="translate(83 130)" />
  <path d="M 886.09375 950.925 L 503.59375 1203.307813" transform="matrix(.1 0 0 -.1 0 241.03)" fill="none" stroke-width="12.454" stroke-linejoin="round" stroke="#f3a203" stroke-miterlimit="10" />
  <use xlink:href="#svg694162356987tikz_00007n" transform="translate(40 112)" />
  <path d="M 174.792969 50.230469 C 174.792969 48.820313 173.652344 47.679688 172.242188 47.679688 C 170.832031 47.679688 169.691406 48.820313 169.691406 50.230469 C 169.691406 51.636719 170.832031 52.78125 172.242188 52.78125 C 173.652344 52.78125 174.792969 51.636719 174.792969 50.230469 Z M 174.792969 50.230469" fill="#62aadf" />
  <path d="M 175.921875 43.230469 L 175.988281 42.894531 C 175.316406 42.894531 175.128906 42.648438 175.015625 41.902344 L 174.136719 35.855469 L 173.667969 35.855469 L 169.804688 41.445313 C 168.96875 42.71875 168.757813 42.894531 168.144531 42.894531 L 168.066406 43.230469 L 170.398438 43.230469 L 170.476563 42.894531 C 169.984375 42.894531 169.828125 42.828125 169.828125 42.59375 C 169.828125 42.382813 169.964844 42.191406 170.109375 41.96875 L 170.890625 40.785156 L 173.765625 40.785156 L 173.878906 41.789063 C 173.890625 41.925781 173.902344 42.082031 173.902344 42.261719 C 173.902344 42.816406 173.554688 42.894531 173.007813 42.894531 L 172.941406 43.230469 Z M 173.722656 40.339844 L 171.15625 40.339844 L 173.320313 37.117188 L 173.355469 37.117188 L 173.722656 40.339844" />
  <path d="M 47.503906 117.136719 C 47.503906 115.726563 46.359375 114.585938 44.953125 114.585938 C 43.542969 114.585938 42.402344 115.726563 42.402344 117.136719 C 42.402344 118.542969 43.542969 119.6875 44.953125 119.6875 C 46.359375 119.6875 47.503906 118.542969 47.503906 117.136719 Z M 47.503906 117.136719" fill="#62aadf" />
  <path d="M 37.109375 116.9375 C 38.167969 116.691406 39.058594 116.144531 39.058594 114.9375 C 39.058594 114.136719 38.523438 113.5 36.640625 113.5 L 33.816406 113.5 L 33.75 113.835938 C 34.574219 113.835938 34.789063 113.957031 34.597656 114.851563 L 33.648438 119.433594 C 33.460938 120.359375 33.269531 120.496094 32.421875 120.496094 L 32.355469 120.828125 L 35.570313 120.828125 C 37.320313 120.828125 38.703125 120.015625 38.703125 118.519531 C 38.703125 117.582031 37.976563 117.113281 37.109375 116.992188 Z M 35.1875 116.789063 L 35.769531 113.957031 C 36.003906 113.933594 36.101563 113.925781 36.328125 113.925781 C 37.578125 113.925781 37.953125 114.414063 37.953125 115.015625 C 37.953125 116.121094 37.375 116.789063 35.835938 116.789063 Z M 35.101563 117.238281 L 35.757813 117.238281 C 36.695313 117.238281 37.554688 117.527344 37.554688 118.554688 C 37.554688 120.203125 36.160156 120.429688 35.144531 120.429688 C 34.867188 120.429688 34.71875 120.417969 34.464844 120.394531 L 35.101563 117.238281" />
  <path d="M 91.160156 145.9375 C 91.160156 144.527344 90.019531 143.386719 88.609375 143.386719 C 87.203125 143.386719 86.058594 144.527344 86.058594 145.9375 C 86.058594 147.347656 87.203125 148.488281 88.609375 148.488281 C 90.019531 148.488281 91.160156 147.347656 91.160156 145.9375 Z M 91.160156 145.9375" fill="#62aadf" />
  <path d="M 92.097656 155.855469 C 92.097656 154.351563 91.269531 152.964844 89.25 152.964844 C 86.851563 152.964844 85.125 154.996094 85.125 157.652344 C 85.125 159.292969 85.894531 160.5625 87.945313 160.5625 C 90.300781 160.5625 92.097656 158.699219 92.097656 155.855469 Z M 90.960938 155.8125 C 90.960938 158.289063 89.886719 160.085938 88.078125 160.085938 C 86.695313 160.085938 86.273438 159.046875 86.273438 157.71875 C 86.273438 155.351563 87.367188 153.445313 89.128906 153.445313 C 90.277344 153.445313 90.960938 154.238281 90.960938 155.8125" />
  <path d="M 928.359375 1645.339063 L 1169.921875 1645.339063 L 1169.921875 1826.510938 L 928.359375 1826.510938 Z M 928.359375 1645.339063" transform="matrix(.1 0 0 -.1 0 241.03)" fill="none" stroke-width="7.97" stroke-linejoin="round" stroke="#000" stroke-miterlimit="10" />
  <path d="M112.328125 63.453125L112.328125 63.265625 110.699219 61.726563 110.507813 61.949219 110.855469 62.351563C111.011719 62.539063 111.109375 62.628906 111.109375 62.785156 111.109375 62.90625 111.023438 62.929688 110.855469 62.929688L97.398438 62.929688 97.398438 63.453125 112.328125 63.453125M105.019531 73.128906L105.089844 72.796875C104.417969 72.796875 104.226563 72.550781 104.117188 71.800781L103.234375 65.753906 102.765625 65.753906 98.90625 71.347656C98.070313 72.617188 97.859375 72.796875 97.242188 72.796875L97.164063 73.128906 99.5 73.128906 99.578125 72.796875C99.085938 72.796875 98.929688 72.726563 98.929688 72.492188 98.929688 72.28125 99.0625 72.09375 99.207031 71.867188L99.988281 70.6875 102.867188 70.6875 102.976563 71.691406C102.988281 71.824219 103.003906 71.980469 103.003906 72.160156 103.003906 72.71875 102.65625 72.796875 102.109375 72.796875L102.042969 73.128906zM102.820313 70.242188L100.257813 70.242188 102.421875 67.015625 102.453125 67.015625 102.820313 70.242188M110.207031 69.234375C111.265625 68.992188 112.160156 68.445313 112.160156 67.238281 112.160156 66.4375 111.625 65.800781 109.738281 65.800781L106.917969 65.800781 106.851563 66.136719C107.675781 66.136719 107.886719 66.257813 107.695313 67.148438L106.746094 71.734375C106.558594 72.660156 106.371094 72.796875 105.523438 72.796875L105.453125 73.128906 108.667969 73.128906C110.417969 73.128906 111.804688 72.316406 111.804688 70.820313 111.804688 69.882813 111.078125 69.414063 110.207031 69.292969zM108.289063 69.089844L108.867188 66.257813C109.101563 66.234375 109.203125 66.222656 109.425781 66.222656 110.675781 66.222656 111.054688 66.714844 111.054688 67.316406 111.054688 68.421875 110.476563 69.089844 108.9375 69.089844zM108.199219 69.539063L108.859375 69.539063C109.796875 69.539063 110.652344 69.828125 110.652344 70.851563 110.652344 72.503906 109.257813 72.726563 108.242188 72.726563 107.964844 72.726563 107.820313 72.71875 107.5625 72.695313L108.199219 69.539063" />
  <path d="M 1326.914063 1228.698438 L 1568.4375 1228.698438 L 1568.4375 1409.83125 L 1326.914063 1409.83125 Z M 1326.914063 1228.698438" transform="matrix(.1 0 0 -.1 0 241.03)" fill="none" stroke-width="7.97" stroke-linejoin="round" stroke="#000" stroke-miterlimit="10" />
  <path d="M152.226563 105.054688L152.226563 104.863281 150.597656 103.324219 150.410156 103.550781 150.753906 103.949219C150.910156 104.140625 151.011719 104.226563 151.011719 104.386719 151.011719 104.507813 150.921875 104.53125 150.753906 104.53125L137.300781 104.53125 137.300781 105.054688 152.226563 105.054688M144.421875 114.828125L144.488281 114.496094C143.816406 114.496094 143.628906 114.25 143.515625 113.503906L142.636719 107.453125 142.167969 107.453125 138.304688 113.046875C137.46875 114.316406 137.257813 114.496094 136.644531 114.496094L136.566406 114.828125 138.898438 114.828125 138.976563 114.496094C138.484375 114.496094 138.328125 114.429688 138.328125 114.195313 138.328125 113.980469 138.464844 113.792969 138.609375 113.570313L139.390625 112.386719 142.265625 112.386719 142.378906 113.390625C142.390625 113.523438 142.402344 113.683594 142.402344 113.859375 142.402344 114.417969 142.054688 114.496094 141.507813 114.496094L141.441406 114.828125zM142.222656 111.941406L139.65625 111.941406 141.820313 108.714844 141.855469 108.714844 142.222656 111.941406M152.398438 110.257813C152.398438 108.75 151.570313 107.367188 149.550781 107.367188 147.152344 107.367188 145.421875 109.398438 145.421875 112.050781 145.421875 113.691406 146.195313 114.964844 148.246094 114.964844 150.601563 114.964844 152.398438 113.101563 152.398438 110.257813zM151.257813 110.210938C151.257813 112.6875 150.1875 114.484375 148.378906 114.484375 146.996094 114.484375 146.574219 113.445313 146.574219 112.117188 146.574219 109.753906 147.664063 107.847656 149.429688 107.847656 150.578125 107.847656 151.257813 108.636719 151.257813 110.210938" />
  <path d="M 433.203125 914.675 L 674.765625 914.675 L 674.765625 1095.846875 L 433.203125 1095.846875 Z M 433.203125 914.675" transform="matrix(.1 0 0 -.1 0 241.03)" fill="none" stroke-width="7.97" stroke-linejoin="round" stroke="#000" stroke-miterlimit="10" />
  <path d="M60.351563 136.453125L60.351563 136.265625 58.722656 134.726563 58.53125 134.949219 58.878906 135.351563C59.035156 135.539063 59.136719 135.628906 59.136719 135.785156 59.136719 135.90625 59.046875 135.929688 58.878906 135.929688L50.398438 135.929688 50.398438 136.453125 60.351563 136.453125M55.398438 141.65625C55.398438 140.148438 54.570313 138.765625 52.550781 138.765625 50.152344 138.765625 48.421875 140.796875 48.421875 143.453125 48.421875 145.09375 49.195313 146.363281 51.246094 146.363281 53.601563 146.363281 55.398438 144.5 55.398438 141.65625zM54.257813 141.609375C54.257813 144.085938 53.1875 145.882813 51.378906 145.882813 49.996094 145.882813 49.574219 144.847656 49.574219 143.519531 49.574219 141.152344 50.664063 139.246094 52.429688 139.246094 53.578125 139.246094 54.257813 140.039063 54.257813 141.609375M60.507813 142.335938C61.566406 142.089844 62.460938 141.542969 62.460938 140.339844 62.460938 139.535156 61.925781 138.898438 60.039063 138.898438L57.21875 138.898438 57.148438 139.234375C57.976563 139.234375 58.1875 139.359375 57.996094 140.25L57.046875 144.835938C56.859375 145.761719 56.671875 145.894531 55.820313 145.894531L55.753906 146.230469 58.96875 146.230469C60.71875 146.230469 62.101563 145.414063 62.101563 143.921875 62.101563 142.984375 61.378906 142.515625 60.507813 142.390625zM58.589844 142.191406L59.167969 139.359375C59.402344 139.335938 59.503906 139.324219 59.726563 139.324219 60.976563 139.324219 61.355469 139.8125 61.355469 140.417969 61.355469 141.523438 60.773438 142.191406 59.234375 142.191406zM58.5 142.636719L59.15625 142.636719C60.09375 142.636719 60.953125 142.929688 60.953125 143.953125 60.953125 145.605469 59.558594 145.828125 58.542969 145.828125 58.265625 145.828125 58.121094 145.816406 57.863281 145.796875L58.5 142.636719" />
</svg>