<svg width="313.28" height="321.373" viewBox="0 0 234.96 241.03" class="displayed_equation" xmlns="http://www.w3.org/2000/svg" xmlns:xlink="http://www.w3.org/1999/xlink">
  <defs>
    <clipPath id="svg694162356987tikz_00005b">
      <path d="M 1 0.175781 L 6.605469 0.175781 L 6.605469 8 L 1 8 Z M 1 0.175781" />
    </clipPath>
    <clipPath id="svg694162356987tikz_00005a">
      <path d="M0 0H7V9H0z" />
    </clipPath>
    <g id="svg694162356987tikz_00005f" clip-path="url(#svg694162356987tikz_00005a)">
      <path d="M 3.609375 1.304688 L 1.546875 6.773438 L 3.609375 4.96875 L 5.671875 6.773438" />
      <g clip-path="url(#svg694162356987tikz_00005b)">
        <path d="M 886.09375 2147.253125 L 865.46875 2092.565625 L 886.09375 2110.6125 L 906.71875 2092.565625 Z M 886.09375 2147.253125" transform="matrix(.1 0 0 -.1 -85 216.03)" fill="none" stroke-width="7.97" stroke-linejoin="round" stroke="#000" stroke-miterlimit="10" />
      </g>
    </g>
    <clipPath id="svg694162356987tikz_00005d">
      <path d="M 1 1 L 8 1 L 8 6.933594 L 1 6.933594 Z M 1 1" />
    </clipPath>
    <clipPath id="svg694162356987tikz_00005c">
      <path d="M0 0H9V7H0z" />
    </clipPath>
    <g id="svg694162356987tikz_00005g" clip-path="url(#svg694162356987tikz_00005c)">
      <path d="M 7.242188 3.9375 L 1.773438 1.875 L 3.578125 3.9375 L 1.773438 6" />
      <g clip-path="url(#svg694162356987tikz_00005d)">
        <path d="M 2082.421875 950.925 L 2027.734375 971.55 L 2045.78125 950.925 L 2027.734375 930.3 Z M 2082.421875 950.925" transform="matrix(.1 0 0 -.1 -201 99.03)" fill="none" stroke-width="7.97" stroke-linejoin="round" stroke="#000" stroke-miterlimit="10" />
      </g>
    </g>
    <clipPath id="svg694162356987tikz_00005e">
      <path d="M0 0H16V16H0z" />
    </clipPath>
    <g id="svg694162356987tikz_00005h" clip-path="url(#svg694162356987tikz_00005e)">
      <path d="M 4.667969 10.878906 L 9.996094 8.46875 L 7.261719 8.289063 L 7.078125 5.550781" />
      <path d="M 196.679688 261.510938 L 249.960938 285.6125 L 222.617188 287.409375 L 220.78125 314.792188 Z M 196.679688 261.510938" transform="matrix(.1 0 0 -.1 -15 37.03)" fill="none" stroke-width="7.97" stroke-linejoin="round" stroke="#000" stroke-miterlimit="10" />
    </g>
  </defs>
  <path d="M 886.09375 2108.620313 L 886.09375 950.925 L 2043.789063 950.925" transform="matrix(.1 0 0 -.1 0 241.03)" fill="none" stroke-width="7.97" stroke-linejoin="round" stroke="#000" stroke-miterlimit="10" />
  <use xlink:href="#svg694162356987tikz_00005f" transform="translate(85 25)" />
  <use xlink:href="#svg694162356987tikz_00005g" transform="translate(201 142)" />
  <path d="M90.6875 19.109375L90.320313 19.109375C89.960938 20.050781 89.726563 20.214844 88.933594 20.214844L87.21875 20.214844 87.21875 20.183594 91.132813 16.054688 91.179688 15.753906 87.09375 15.753906 86.679688 17.515625 87.027344 17.515625C87.25 16.769531 87.375 16.566406 88.085938 16.566406L89.894531 16.566406 89.894531 16.601563 85.988281 20.707031 85.945313 21.03125 90.183594 21.03125 90.6875 19.109375M216.300781 143.902344C216.164063 143.011719 216.089844 142.65625 215.84375 142.230469L215.675781 142.230469 214.089844 142.351563 214.089844 142.675781C214.089844 142.675781 214.324219 142.65625 214.480469 142.65625 215.164063 142.65625 215.21875 143.203125 215.296875 143.703125L215.953125 147.628906C215.640625 148.109375 214.839844 149.171875 214.628906 149.171875 214.382813 149.171875 214.257813 148.578125 213.835938 148.578125 213.578125 148.578125 213.398438 148.722656 213.398438 149.058594 213.398438 149.46875 213.789063 149.78125 214.257813 149.78125 215.105469 149.78125 215.886719 148.523438 216.722656 147.363281 217.304688 146.558594 217.941406 145.601563 218.542969 144.539063 218.898438 143.9375 219.03125 143.4375 219.03125 143 219.03125 142.519531 218.742188 142.152344 218.332031 142.152344 218.007813 142.152344 217.839844 142.351563 217.839844 142.585938 217.839844 143.011719 218.386719 143.324219 218.386719 143.613281 218.386719 143.882813 218.285156 144.148438 218.019531 144.585938L216.734375 146.648438 216.667969 146.648438 216.570313 145.53125 216.300781 143.902344" />
  <path d="M 886.09375 950.925 L 224.023438 288.854688" transform="matrix(.1 0 0 -.1 0 241.03)" fill="none" stroke-width="7.97" stroke-linejoin="round" stroke="#000" stroke-miterlimit="10" />
  <use xlink:href="#svg694162356987tikz_00005h" transform="translate(15 204)" />
  <path d="M 19.214844 221.90625 L 19.179688 221.90625 L 19.046875 221.335938 C 18.890625 220.734375 18.679688 220.242188 18.410156 219.929688 L 18.242188 219.929688 L 16.691406 220.109375 L 16.691406 220.445313 C 16.691406 220.445313 16.859375 220.410156 17.039063 220.410156 C 17.773438 220.398438 17.964844 220.699219 18.265625 221.636719 L 18.578125 222.652344 L 17.773438 223.824219 C 17.339844 224.449219 17.140625 224.460938 17.09375 224.460938 C 16.90625 224.460938 16.636719 224.316406 16.390625 224.316406 C 16.125 224.316406 15.957031 224.5625 15.957031 224.78125 C 15.957031 225.0625 16.125 225.328125 16.601563 225.328125 C 17.273438 225.328125 17.640625 224.804688 18 224.226563 L 18.710938 223.066406 L 18.757813 223.066406 L 19.035156 224.191406 C 19.191406 224.917969 19.4375 225.339844 19.949219 225.339844 C 20.710938 225.339844 21.179688 224.582031 21.5 224.09375 L 21.265625 223.914063 C 20.964844 224.316406 20.753906 224.539063 20.464844 224.539063 C 20.117188 224.539063 19.894531 224.125 19.582031 223.097656 L 19.347656 222.339844 L 20.027344 221.257813 C 20.21875 220.945313 20.375 220.789063 20.632813 220.789063 C 20.777344 220.789063 21.03125 220.902344 21.210938 220.902344 C 21.511719 220.902344 21.726563 220.644531 21.726563 220.375 C 21.726563 220.0625 21.589844 219.886719 21.167969 219.886719 C 20.507813 219.886719 20.0625 220.433594 19.761719 220.96875 L 19.214844 221.90625" />
  <path d="M 174.792969 50.230469 C 174.792969 48.820313 173.652344 47.679688 172.242188 47.679688 C 170.832031 47.679688 169.691406 48.820313 169.691406 50.230469 C 169.691406 51.636719 170.832031 52.78125 172.242188 52.78125 C 173.652344 52.78125 174.792969 51.636719 174.792969 50.230469 Z M 174.792969 50.230469" fill="#62aadf" />
  <path d="M 175.921875 43.230469 L 175.988281 42.894531 C 175.316406 42.894531 175.128906 42.648438 175.015625 41.902344 L 174.136719 35.855469 L 173.667969 35.855469 L 169.804688 41.445313 C 168.96875 42.71875 168.757813 42.894531 168.144531 42.894531 L 168.066406 43.230469 L 170.398438 43.230469 L 170.476563 42.894531 C 169.984375 42.894531 169.828125 42.828125 169.828125 42.59375 C 169.828125 42.382813 169.964844 42.191406 170.109375 41.96875 L 170.890625 40.785156 L 173.765625 40.785156 L 173.878906 41.789063 C 173.890625 41.925781 173.902344 42.082031 173.902344 42.261719 C 173.902344 42.816406 173.554688 42.894531 173.007813 42.894531 L 172.941406 43.230469 Z M 173.722656 40.339844 L 171.15625 40.339844 L 173.320313 37.117188 L 173.355469 37.117188 L 173.722656 40.339844" />
  <path d="M 47.503906 117.136719 C 47.503906 115.726563 46.359375 114.585938 44.953125 114.585938 C 43.542969 114.585938 42.402344 115.726563 42.402344 117.136719 C 42.402344 118.542969 43.542969 119.6875 44.953125 119.6875 C 46.359375 119.6875 47.503906 118.542969 47.503906 117.136719 Z M 47.503906 117.136719" fill="#62aadf" />
  <path d="M 37.109375 116.9375 C 38.167969 116.691406 39.058594 116.144531 39.058594 114.9375 C 39.058594 114.136719 38.523438 113.5 36.640625 113.5 L 33.816406 113.5 L 33.75 113.835938 C 34.574219 113.835938 34.789063 113.957031 34.597656 114.851563 L 33.648438 119.433594 C 33.460938 120.359375 33.269531 120.496094 32.421875 120.496094 L 32.355469 120.828125 L 35.570313 120.828125 C 37.320313 120.828125 38.703125 120.015625 38.703125 118.519531 C 38.703125 117.582031 37.976563 117.113281 37.109375 116.992188 Z M 35.1875 116.789063 L 35.769531 113.957031 C 36.003906 113.933594 36.101563 113.925781 36.328125 113.925781 C 37.578125 113.925781 37.953125 114.414063 37.953125 115.015625 C 37.953125 116.121094 37.375 116.789063 35.835938 116.789063 Z M 35.101563 117.238281 L 35.757813 117.238281 C 36.695313 117.238281 37.554688 117.527344 37.554688 118.554688 C 37.554688 120.203125 36.160156 120.429688 35.144531 120.429688 C 34.867188 120.429688 34.71875 120.417969 34.464844 120.394531 L 35.101563 117.238281" />
  <path d="M 91.160156 145.9375 C 91.160156 144.527344 90.019531 143.386719 88.609375 143.386719 C 87.203125 143.386719 86.058594 144.527344 86.058594 145.9375 C 86.058594 147.347656 87.203125 148.488281 88.609375 148.488281 C 90.019531 148.488281 91.160156 147.347656 91.160156 145.9375 Z M 91.160156 145.9375" fill="#62aadf" />
  <path d="M 92.097656 155.855469 C 92.097656 154.351563 91.269531 152.964844 89.25 152.964844 C 86.851563 152.964844 85.125 154.996094 85.125 157.652344 C 85.125 159.292969 85.894531 160.5625 87.945313 160.5625 C 90.300781 160.5625 92.097656 158.699219 92.097656 155.855469 Z M 90.960938 155.8125 C 90.960938 158.289063 89.886719 160.085938 88.078125 160.085938 C 86.695313 160.085938 86.273438 159.046875 86.273438 157.71875 C 86.273438 155.351563 87.367188 153.445313 89.128906 153.445313 C 90.277344 153.445313 90.960938 154.238281 90.960938 155.8125" />
</svg>